<svg xmlns="http://www.w3.org/2000/svg" xmlns:xlink="http://www.w3.org/1999/xlink" width="40" zoomAndPan="magnify" viewBox="0 0 30 30.000001" height="40" preserveAspectRatio="xMidYMid meet" version="1.0"><defs><clipPath id="id1"><path d="M 1.699219 0 L 28.554688 0 L 28.554688 29.03125 L 1.699219 29.03125 Z M 1.699219 0 " clip-rule="nonzero"/></clipPath></defs><g clip-path="url(#id1)"><path fill="#ffffff" d="M 28.554688 4.84375 L 20.984375 4.84375 L 19.765625 0.0117188 L 10.488281 0.0117188 L 9.265625 4.84375 L 1.699219 4.84375 L 1.699219 7.261719 L 4.199219 7.261719 L 5.421875 29.023438 L 24.828125 29.023438 L 26.050781 7.261719 L 28.554688 7.261719 Z M 12.441406 2.429688 L 17.871094 2.429688 L 18.480469 4.84375 L 11.828125 4.84375 Z M 22.511719 26.605469 L 7.742188 26.605469 L 6.640625 7.261719 L 23.609375 7.261719 Z M 22.511719 26.605469 " fill-opacity="1" fill-rule="nonzero"/></g><path fill="#ffffff" d="M 10.242188 10.890625 L 12.683594 10.890625 L 12.683594 22.976562 L 10.242188 22.976562 Z M 10.242188 10.890625 " fill-opacity="1" fill-rule="nonzero"/><path fill="#ffffff" d="M 17.566406 10.890625 L 20.007812 10.890625 L 20.007812 22.976562 L 17.566406 22.976562 Z M 17.566406 10.890625 " fill-opacity="1" fill-rule="nonzero"/></svg>