<svg xmlns="http://www.w3.org/2000/svg" xmlns:xlink="http://www.w3.org/1999/xlink" width="40" zoomAndPan="magnify" viewBox="0 0 30 30.000001" height="40" preserveAspectRatio="xMidYMid meet" version="1.0"><defs><clipPath id="id1"><path d="M 0.492188 2.8125 L 29.507812 2.8125 L 29.507812 26.039062 L 0.492188 26.039062 Z M 0.492188 2.8125 " clip-rule="nonzero"/></clipPath></defs><g clip-path="url(#id1)"><path fill="#0ebb04" d="M 9.59375 26.039062 C 9.570312 26.039062 9.546875 26.039062 9.523438 26.035156 C 8.820312 26.007812 8.175781 25.578125 7.796875 24.882812 C 5.4375 20.546875 1.304688 16.507812 1.265625 16.46875 C 0.359375 15.585938 0.234375 14.011719 0.984375 12.953125 C 1.734375 11.890625 3.074219 11.742188 3.980469 12.621094 C 4.136719 12.769531 7.128906 15.691406 9.707031 19.464844 C 12.320312 16.007812 17.75 9.59375 26.222656 3.210938 C 27.210938 2.464844 28.53125 2.800781 29.167969 3.960938 C 29.804688 5.121094 29.515625 6.664062 28.527344 7.410156 C 17.027344 16.074219 11.367188 24.9375 11.308594 25.023438 C 10.90625 25.664062 10.269531 26.039062 9.59375 26.039062 " fill-opacity="1" fill-rule="nonzero"/></g></svg>