<svg xmlns="http://www.w3.org/2000/svg" xmlns:xlink="http://www.w3.org/1999/xlink" width="40" zoomAndPan="magnify" viewBox="0 0 30 30.000001" height="40" preserveAspectRatio="xMidYMid meet" version="1.0"><path fill="#ffffff" d="M 27.902344 11.53125 C 27.710938 10.664062 27.4375 9.828125 27.085938 9.019531 C 26.730469 8.210938 26.296875 7.441406 25.792969 6.714844 C 25.285156 5.992188 24.714844 5.324219 24.074219 4.710938 C 23.4375 4.097656 22.746094 3.554688 22 3.078125 C 21.253906 2.601562 20.46875 2.203125 19.644531 1.882812 C 18.820312 1.5625 17.972656 1.324219 17.101562 1.171875 C 16.230469 1.015625 15.355469 0.949219 14.46875 0.96875 C 13.585938 0.988281 12.710938 1.09375 11.847656 1.285156 C 10.984375 1.476562 10.148438 1.75 9.339844 2.105469 C 8.53125 2.460938 7.761719 2.890625 7.039062 3.398438 C 6.3125 3.90625 5.644531 4.480469 5.035156 5.117188 C 4.421875 5.757812 3.878906 6.449219 3.40625 7.195312 C 2.929688 7.941406 2.53125 8.726562 2.210938 9.550781 C 1.890625 10.375 1.65625 11.222656 1.503906 12.09375 C 1.351562 12.964844 1.28125 13.84375 1.304688 14.726562 C 1.324219 15.613281 1.429688 16.484375 1.621094 17.347656 C 1.8125 18.210938 2.089844 19.046875 2.445312 19.859375 C 2.800781 20.667969 3.234375 21.433594 3.742188 22.15625 C 4.25 22.882812 4.824219 23.546875 5.464844 24.160156 C 6.105469 24.769531 6.796875 25.3125 7.542969 25.785156 C 8.289062 26.261719 9.078125 26.65625 9.902344 26.976562 C 10.726562 27.292969 11.574219 27.53125 12.445312 27.683594 C 13.316406 27.835938 14.195312 27.898438 15.078125 27.878906 C 15.960938 27.859375 16.835938 27.75 17.699219 27.558594 C 18.558594 27.367188 19.394531 27.089844 20.199219 26.734375 C 21.007812 26.378906 21.773438 25.949219 22.492188 25.441406 C 23.214844 24.933594 23.882812 24.363281 24.492188 23.726562 C 25.101562 23.089844 25.640625 22.398438 26.113281 21.652344 C 26.589844 20.910156 26.984375 20.125 27.304688 19.304688 C 27.625 18.484375 27.859375 17.636719 28.015625 16.769531 C 28.167969 15.902344 28.234375 15.023438 28.214844 14.144531 C 28.195312 13.261719 28.09375 12.390625 27.902344 11.53125 Z M 17.457031 26.648438 C 16.65625 26.824219 15.84375 26.921875 15.019531 26.9375 C 14.199219 26.953125 13.382812 26.890625 12.574219 26.746094 C 11.761719 26.601562 10.976562 26.382812 10.210938 26.082031 C 9.445312 25.78125 8.714844 25.410156 8.023438 24.96875 C 7.328125 24.527344 6.6875 24.019531 6.09375 23.449219 C 5.5 22.878906 4.96875 22.257812 4.5 21.585938 C 4.027344 20.910156 3.628906 20.195312 3.296875 19.441406 C 2.96875 18.691406 2.714844 17.910156 2.539062 17.109375 C 2.363281 16.304688 2.265625 15.492188 2.25 14.671875 C 2.230469 13.847656 2.296875 13.035156 2.441406 12.222656 C 2.585938 11.414062 2.804688 10.625 3.105469 9.859375 C 3.40625 9.09375 3.777344 8.367188 4.21875 7.671875 C 4.660156 6.980469 5.167969 6.335938 5.738281 5.746094 C 6.304688 5.152344 6.929688 4.621094 7.601562 4.148438 C 8.277344 3.679688 8.992188 3.277344 9.742188 2.949219 C 10.496094 2.617188 11.273438 2.367188 12.078125 2.1875 C 12.960938 1.996094 13.859375 1.902344 14.769531 1.902344 C 15.53125 1.902344 16.289062 1.972656 17.042969 2.113281 C 17.792969 2.253906 18.527344 2.460938 19.238281 2.734375 C 19.953125 3.007812 20.636719 3.34375 21.289062 3.746094 C 21.9375 4.144531 22.550781 4.597656 23.117188 5.109375 C 23.6875 5.621094 24.203125 6.179688 24.667969 6.785156 C 25.136719 7.390625 25.542969 8.03125 25.890625 8.714844 C 26.242188 9.394531 26.523438 10.101562 26.742188 10.832031 C 26.964844 11.5625 27.113281 12.308594 27.195312 13.070312 C 27.277344 13.832031 27.292969 14.589844 27.234375 15.351562 C 27.179688 16.117188 27.054688 16.867188 26.859375 17.605469 C 26.664062 18.34375 26.40625 19.058594 26.078125 19.753906 C 25.753906 20.445312 25.367188 21.101562 24.921875 21.722656 C 24.476562 22.34375 23.980469 22.917969 23.429688 23.449219 C 22.878906 23.976562 22.285156 24.453125 21.644531 24.875 C 21.007812 25.296875 20.335938 25.65625 19.632812 25.953125 C 18.929688 26.25 18.203125 26.484375 17.457031 26.648438 Z M 17.457031 26.648438 " fill-opacity="1" fill-rule="nonzero"/><path fill="#ffffff" d="M 18.226562 9.320312 L 11.308594 9.320312 C 11.089844 9.320312 10.882812 9.359375 10.679688 9.445312 C 10.480469 9.527344 10.300781 9.644531 10.148438 9.796875 C 9.992188 9.949219 9.875 10.125 9.792969 10.328125 C 9.707031 10.527344 9.667969 10.738281 9.667969 10.953125 L 9.667969 17.882812 C 9.667969 18.101562 9.707031 18.308594 9.792969 18.511719 C 9.875 18.710938 9.992188 18.890625 10.148438 19.042969 C 10.300781 19.199219 10.480469 19.316406 10.679688 19.398438 C 10.882812 19.484375 11.089844 19.523438 11.308594 19.523438 L 18.226562 19.523438 C 18.445312 19.523438 18.65625 19.484375 18.855469 19.398438 C 19.058594 19.316406 19.234375 19.199219 19.390625 19.042969 C 19.542969 18.890625 19.660156 18.710938 19.746094 18.511719 C 19.828125 18.308594 19.871094 18.101562 19.871094 17.882812 L 19.871094 10.953125 C 19.871094 10.738281 19.828125 10.527344 19.746094 10.328125 C 19.660156 10.125 19.542969 9.949219 19.386719 9.796875 C 19.234375 9.644531 19.054688 9.527344 18.855469 9.445312 C 18.65625 9.359375 18.445312 9.320312 18.226562 9.320312 Z M 18.941406 17.882812 C 18.941406 18.082031 18.871094 18.25 18.734375 18.386719 C 18.59375 18.527344 18.425781 18.597656 18.226562 18.597656 L 11.308594 18.597656 C 11.109375 18.597656 10.941406 18.527344 10.804688 18.386719 C 10.664062 18.25 10.59375 18.082031 10.59375 17.882812 L 10.59375 10.953125 C 10.59375 10.757812 10.664062 10.589844 10.804688 10.453125 C 10.945312 10.316406 11.113281 10.246094 11.308594 10.25 L 18.226562 10.25 C 18.425781 10.246094 18.59375 10.316406 18.730469 10.453125 C 18.871094 10.589844 18.941406 10.757812 18.941406 10.953125 Z M 18.941406 17.882812 " fill-opacity="1" fill-rule="nonzero"/></svg>